<svg id="svg" version="1.1" width="400" height="426.34730538922156" viewBox="0 0 400 426.34730538922156" xmlns="http://www.w3.org/2000/svg" xmlns:xlink="http://www.w3.org/1999/xlink" ><g id="svgg"><path id="path0" d="M167.148 1.605 C 166.790 1.815,165.642 2.088,164.599 2.214 C 163.555 2.339,162.439 2.704,162.118 3.024 C 161.798 3.345,161.351 3.493,161.125 3.354 C 160.710 3.097,158.395 3.686,156.200 4.607 C 154.328 5.393,153.420 5.616,151.853 5.675 C 151.054 5.705,150.400 5.880,150.400 6.065 C 150.400 6.249,149.925 6.400,149.344 6.400 C 148.763 6.400,148.070 6.698,147.804 7.062 C 147.486 7.497,146.524 7.790,144.999 7.917 C 141.331 8.221,140.280 9.468,139.925 13.938 C 139.582 18.250,139.216 20.343,138.756 20.627 C 138.560 20.748,138.400 21.996,138.400 23.400 C 138.400 24.804,138.220 26.064,138.000 26.200 C 137.780 26.336,137.600 27.683,137.600 29.193 C 137.600 32.127,136.878 36.000,136.331 36.000 C 136.149 36.000,136.000 37.440,136.000 39.200 C 136.000 41.067,135.833 42.400,135.600 42.400 C 135.374 42.400,135.200 43.538,135.200 45.013 C 135.200 46.988,135.051 47.682,134.588 47.860 C 134.053 48.065,134.060 48.156,134.649 48.586 C 135.121 48.932,135.184 49.163,134.861 49.363 C 134.607 49.519,134.400 50.076,134.400 50.600 C 134.400 51.124,134.220 51.664,134.000 51.800 C 133.780 51.936,133.594 52.802,133.587 53.724 C 133.573 55.561,132.876 56.800,131.856 56.800 C 131.495 56.800,131.200 56.936,131.200 57.102 C 131.200 57.269,130.615 57.657,129.900 57.965 C 129.185 58.273,128.122 58.857,127.538 59.263 C 126.954 59.668,126.182 60.000,125.822 60.000 C 125.461 60.000,124.780 60.360,124.308 60.800 C 123.836 61.240,123.213 61.600,122.925 61.600 C 122.636 61.600,122.400 61.759,122.400 61.953 C 122.400 62.148,122.085 62.407,121.700 62.529 C 120.847 62.799,118.824 64.015,118.078 64.706 C 117.778 64.984,116.767 65.560,115.831 65.986 C 114.896 66.412,113.899 67.039,113.616 67.380 C 113.334 67.721,112.854 68.000,112.551 68.000 C 112.248 68.000,112.000 68.150,112.000 68.332 C 112.000 68.515,111.505 68.920,110.900 69.232 C 110.295 69.545,109.451 70.115,109.025 70.500 C 108.598 70.885,108.013 71.200,107.725 71.200 C 107.436 71.200,107.200 71.380,107.200 71.600 C 107.200 71.820,106.750 72.000,106.200 72.000 C 105.650 72.000,105.200 71.820,105.200 71.600 C 105.200 71.380,104.300 71.200,103.200 71.200 C 102.100 71.200,101.200 71.020,101.200 70.800 C 101.200 70.580,100.840 70.400,100.400 70.400 C 99.960 70.400,99.600 70.220,99.600 70.000 C 99.600 69.780,98.981 69.600,98.224 69.600 C 97.467 69.600,96.736 69.420,96.600 69.200 C 96.464 68.980,95.546 68.800,94.560 68.800 C 93.319 68.800,92.502 68.553,91.908 68.000 C 91.408 67.534,90.496 67.200,89.725 67.200 C 88.996 67.200,88.400 67.020,88.400 66.800 C 88.400 66.580,87.961 66.400,87.424 66.400 C 86.887 66.400,86.331 66.211,86.188 65.981 C 86.012 65.695,85.744 65.714,85.351 66.041 C 84.744 66.544,82.800 65.852,82.800 65.132 C 82.800 64.950,82.181 64.800,81.424 64.800 C 80.667 64.800,79.936 64.620,79.800 64.400 C 79.664 64.180,78.849 64.000,77.989 64.000 C 77.128 64.000,75.783 63.640,75.000 63.200 C 74.217 62.760,72.951 62.400,72.188 62.400 C 71.425 62.400,70.799 62.265,70.797 62.100 C 70.792 61.620,68.740 60.800,67.544 60.800 C 66.941 60.800,66.336 60.620,66.200 60.400 C 66.064 60.180,65.423 60.000,64.776 60.000 C 64.129 60.000,63.600 59.814,63.600 59.586 C 63.600 58.612,60.429 61.106,59.893 62.501 C 59.746 62.885,59.349 63.200,59.013 63.200 C 58.674 63.200,58.400 63.546,58.400 63.973 C 58.400 64.398,58.040 64.860,57.600 65.000 C 57.160 65.140,56.800 65.406,56.800 65.592 C 56.800 65.778,55.720 67.027,54.400 68.368 C 53.080 69.708,52.000 70.998,52.000 71.234 C 52.000 71.470,51.280 72.354,50.400 73.200 C 49.520 74.046,48.800 74.896,48.800 75.091 C 48.800 75.285,47.720 76.565,46.400 77.935 C 44.464 79.944,44.000 80.679,44.000 81.733 C 44.000 83.101,44.785 85.192,45.300 85.197 C 45.465 85.199,45.600 85.740,45.600 86.400 C 45.600 87.060,45.780 87.600,46.000 87.600 C 46.220 87.600,46.400 87.834,46.400 88.120 C 46.400 88.856,47.341 90.793,47.700 90.797 C 47.865 90.799,48.000 91.258,48.000 91.817 C 48.000 92.376,48.360 93.220,48.800 93.692 C 49.240 94.164,49.600 94.967,49.600 95.475 C 49.600 95.984,49.780 96.400,50.000 96.400 C 50.220 96.400,50.400 96.760,50.400 97.200 C 50.400 97.640,50.580 98.000,50.800 98.000 C 51.020 98.000,51.200 98.458,51.200 99.017 C 51.200 99.576,51.560 100.420,52.000 100.892 C 52.440 101.364,52.800 102.167,52.800 102.675 C 52.800 103.184,52.980 103.600,53.200 103.600 C 53.420 103.600,53.600 103.878,53.600 104.217 C 53.600 104.556,53.960 105.220,54.400 105.692 C 54.840 106.164,55.200 107.064,55.200 107.692 C 55.200 108.320,55.560 109.220,56.000 109.692 C 56.440 110.164,56.800 110.967,56.800 111.475 C 56.800 111.984,56.980 112.400,57.200 112.400 C 57.420 112.400,57.600 112.672,57.600 113.005 C 57.600 113.338,57.760 113.923,57.956 114.305 C 58.152 114.687,58.713 115.900,59.204 117.000 C 59.694 118.100,60.433 119.692,60.847 120.538 C 61.830 122.546,61.502 125.584,60.300 125.597 C 60.135 125.599,60.000 125.942,60.000 126.359 C 60.000 126.777,59.460 128.145,58.800 129.400 C 58.140 130.655,57.600 131.916,57.600 132.203 C 57.600 132.652,57.030 133.957,55.550 136.895 C 55.357 137.277,55.200 138.042,55.200 138.595 C 55.200 139.148,55.020 139.600,54.800 139.600 C 54.580 139.600,54.400 140.039,54.400 140.576 C 54.400 141.113,54.220 141.664,54.000 141.800 C 53.780 141.936,53.600 142.399,53.600 142.829 C 53.600 143.259,53.420 143.968,53.200 144.405 C 52.980 144.842,52.620 145.558,52.400 145.995 C 52.180 146.432,52.000 147.154,52.000 147.600 C 52.000 148.046,51.832 148.723,51.626 149.105 C 51.421 149.487,51.017 150.385,50.729 151.100 C 50.241 152.311,50.074 152.400,48.302 152.400 C 47.256 152.400,46.399 152.535,46.397 152.700 C 46.393 153.101,44.419 154.000,43.544 154.000 C 43.161 154.000,42.736 154.180,42.600 154.400 C 42.464 154.620,41.744 154.800,41.000 154.800 C 40.256 154.800,39.536 154.980,39.400 155.200 C 39.264 155.420,38.724 155.600,38.200 155.600 C 37.676 155.600,37.136 155.780,37.000 156.000 C 36.864 156.220,36.324 156.400,35.800 156.400 C 35.276 156.400,34.736 156.580,34.600 156.800 C 34.464 157.020,33.581 157.200,32.638 157.200 C 31.432 157.200,30.709 157.437,30.200 158.000 C 29.756 158.491,28.968 158.800,28.162 158.800 C 27.439 158.800,26.736 158.980,26.600 159.200 C 26.464 159.420,25.744 159.600,25.000 159.600 C 24.256 159.600,23.536 159.780,23.400 160.000 C 23.264 160.220,22.701 160.400,22.148 160.400 C 21.595 160.400,20.863 160.680,20.520 161.023 C 20.177 161.366,19.656 161.554,19.361 161.440 C 19.067 161.327,18.719 161.407,18.589 161.617 C 18.459 161.828,17.581 162.000,16.638 162.000 C 15.432 162.000,14.709 162.237,14.200 162.800 C 13.764 163.282,12.968 163.600,12.200 163.600 C 11.446 163.600,10.637 163.917,10.223 164.374 C 9.749 164.899,9.017 165.142,7.959 165.127 C 6.046 165.101,5.200 165.742,5.200 167.220 C 5.200 167.838,4.930 168.613,4.600 168.943 C 4.270 169.273,4.000 170.186,4.000 170.971 C 4.000 171.757,3.818 172.400,3.595 172.400 C 3.355 172.400,3.212 173.506,3.246 175.100 C 3.334 179.335,2.775 184.119,2.102 184.887 C 1.771 185.265,1.589 185.914,1.698 186.330 C 1.806 186.746,1.694 187.427,1.448 187.843 C 0.117 190.092,1.089 195.948,2.800 195.989 C 3.130 195.997,3.975 196.543,4.678 197.202 C 5.381 197.861,6.145 198.400,6.375 198.400 C 6.605 198.400,7.618 199.030,8.627 199.800 C 9.636 200.570,10.717 201.200,11.031 201.200 C 11.344 201.200,11.942 201.515,12.360 201.900 C 14.746 204.099,15.676 204.800,16.207 204.800 C 16.533 204.800,16.800 204.960,16.800 205.157 C 16.800 205.353,17.475 205.790,18.300 206.128 C 19.125 206.467,20.287 207.206,20.883 207.772 C 21.478 208.337,22.203 208.800,22.494 208.800 C 22.785 208.800,23.283 209.160,23.600 209.600 C 23.917 210.040,24.414 210.400,24.705 210.400 C 24.996 210.400,25.620 210.760,26.092 211.200 C 26.564 211.640,27.187 212.000,27.475 212.000 C 27.764 212.000,28.000 212.180,28.000 212.400 C 28.000 212.620,28.288 212.800,28.640 212.800 C 28.991 212.800,29.783 213.340,30.400 214.000 C 31.017 214.660,31.809 215.200,32.160 215.200 C 32.512 215.200,32.800 215.350,32.800 215.532 C 32.800 215.715,33.295 216.119,33.900 216.430 C 34.505 216.740,35.291 217.311,35.647 217.697 C 36.003 218.084,36.548 218.400,36.859 218.400 C 37.169 218.400,37.683 218.760,38.000 219.200 C 38.317 219.640,38.978 220.000,39.468 220.000 C 40.032 220.000,40.771 220.551,41.480 221.500 C 42.096 222.325,42.735 223.060,42.900 223.133 C 43.065 223.207,43.200 224.152,43.200 225.233 C 43.200 226.315,43.380 227.200,43.600 227.200 C 43.822 227.200,44.000 228.259,44.000 229.576 C 44.000 230.883,44.180 232.064,44.400 232.200 C 44.620 232.336,44.800 233.236,44.800 234.200 C 44.800 235.164,44.980 236.064,45.200 236.200 C 45.425 236.339,45.600 238.271,45.600 240.624 C 45.600 243.141,45.759 244.800,46.000 244.800 C 46.495 244.800,46.525 246.565,46.047 247.505 C 45.852 247.887,45.448 248.740,45.149 249.400 C 44.849 250.060,43.956 251.230,43.164 252.000 C 42.372 252.770,41.296 254.030,40.773 254.800 C 40.250 255.570,39.419 256.522,38.927 256.916 C 38.435 257.310,37.195 258.734,36.171 260.080 C 35.147 261.426,33.790 262.965,33.155 263.499 C 32.520 264.034,32.000 264.697,32.000 264.973 C 32.000 265.250,31.100 266.359,30.001 267.438 C 28.901 268.517,28.001 269.568,28.001 269.774 C 28.000 269.980,26.515 271.721,24.700 273.644 C 22.885 275.567,20.590 278.149,19.600 279.382 C 18.610 280.615,17.025 282.502,16.078 283.577 C 15.131 284.651,14.356 285.861,14.356 286.265 C 14.356 287.587,15.408 290.724,16.111 291.502 C 16.490 291.921,16.800 292.546,16.800 292.891 C 16.800 293.236,17.340 294.545,18.000 295.800 C 18.660 297.055,19.200 298.423,19.200 298.841 C 19.200 299.258,19.380 299.600,19.600 299.600 C 19.820 299.600,20.004 299.825,20.009 300.100 C 20.014 300.375,20.370 301.050,20.800 301.600 C 21.230 302.150,21.586 302.904,21.591 303.276 C 21.596 303.648,22.140 304.993,22.800 306.265 C 23.460 307.537,24.000 308.898,24.000 309.289 C 24.000 309.680,24.180 310.000,24.400 310.000 C 24.620 310.000,24.800 310.278,24.800 310.618 C 24.800 310.958,25.248 311.684,25.795 312.231 L 26.790 313.226 50.895 313.183 C 77.763 313.135,76.275 312.985,78.460 315.956 C 79.125 316.860,79.924 317.600,80.235 317.600 C 80.546 317.600,80.800 317.825,80.800 318.100 C 80.800 318.375,81.520 319.388,82.400 320.351 C 83.280 321.313,84.000 322.258,84.000 322.451 C 84.000 322.643,84.274 322.800,84.610 322.800 C 84.945 322.800,85.377 323.212,85.568 323.716 C 85.760 324.220,86.205 324.873,86.558 325.165 C 86.911 325.458,87.200 325.908,87.200 326.164 C 87.200 326.420,88.100 327.517,89.200 328.600 C 90.300 329.683,91.200 330.800,91.200 331.082 C 91.200 331.363,91.560 331.818,92.000 332.093 C 92.440 332.368,92.800 332.912,92.800 333.302 C 92.800 333.692,93.025 334.392,93.300 334.858 C 93.700 335.535,93.700 335.741,93.300 335.886 C 92.979 336.002,92.800 336.887,92.800 338.353 C 92.800 339.611,92.622 340.818,92.405 341.035 C 92.187 341.253,91.962 343.089,91.905 345.115 C 91.847 347.141,91.665 348.799,91.500 348.800 C 91.335 348.800,91.200 349.869,91.200 351.176 C 91.200 352.483,91.020 353.664,90.800 353.800 C 90.580 353.936,90.400 355.286,90.400 356.800 C 90.400 358.314,90.220 359.664,90.000 359.800 C 89.780 359.936,89.600 360.836,89.600 361.800 C 89.600 362.764,89.462 363.638,89.293 363.743 C 89.124 363.847,88.934 365.612,88.869 367.666 C 88.805 369.720,88.583 371.571,88.376 371.780 C 88.169 371.989,88.000 373.103,88.000 374.256 C 88.000 375.409,87.820 376.464,87.600 376.600 C 87.380 376.736,87.200 377.737,87.200 378.824 C 87.200 379.911,87.020 380.800,86.800 380.800 C 86.580 380.800,86.400 381.168,86.400 381.618 C 86.400 382.532,88.074 384.400,88.894 384.400 C 89.185 384.400,89.683 384.760,90.000 385.200 C 90.317 385.640,90.897 386.000,91.288 386.000 C 91.680 386.000,92.000 386.180,92.000 386.400 C 92.000 386.620,92.288 386.800,92.640 386.800 C 92.991 386.800,93.783 387.340,94.400 388.000 C 95.017 388.660,95.809 389.200,96.160 389.200 C 96.512 389.200,96.800 389.380,96.800 389.600 C 96.800 389.820,97.036 390.000,97.325 390.000 C 97.613 390.000,98.236 390.360,98.708 390.800 C 99.180 391.240,99.762 391.600,100.000 391.600 C 100.238 391.600,100.820 391.960,101.292 392.400 C 101.764 392.840,102.387 393.200,102.675 393.200 C 102.964 393.200,103.200 393.338,103.200 393.506 C 103.200 393.674,103.920 394.256,104.800 394.800 C 105.680 395.344,106.400 395.926,106.400 396.094 C 106.400 396.262,106.760 396.400,107.200 396.400 C 107.640 396.400,108.000 396.580,108.000 396.800 C 108.000 397.020,108.320 397.200,108.712 397.200 C 109.103 397.200,109.683 397.560,110.000 398.000 C 110.814 399.130,111.898 398.994,113.200 397.600 C 113.817 396.940,114.609 396.400,114.960 396.400 C 115.312 396.400,115.600 396.220,115.600 396.000 C 115.600 395.780,115.878 395.600,116.217 395.600 C 116.556 395.600,117.220 395.240,117.692 394.800 C 118.164 394.360,118.787 394.000,119.075 394.000 C 119.364 394.000,119.600 393.820,119.600 393.600 C 119.600 393.380,119.848 393.200,120.151 393.200 C 120.453 393.200,121.466 392.480,122.400 391.600 C 123.399 390.659,124.490 390.000,125.049 390.000 C 125.572 390.000,126.000 389.820,126.000 389.600 C 126.000 389.380,126.270 389.200,126.600 389.200 C 126.929 389.200,127.900 388.520,128.757 387.688 C 129.613 386.857,130.709 386.147,131.191 386.111 C 131.673 386.074,132.388 385.675,132.781 385.222 C 133.173 384.770,133.760 384.400,134.085 384.400 C 134.410 384.400,135.002 384.040,135.400 383.600 C 135.798 383.160,136.366 382.800,136.662 382.800 C 136.958 382.800,137.200 382.650,137.200 382.468 C 137.200 382.285,137.695 381.885,138.300 381.580 C 138.905 381.274,140.152 380.524,141.072 379.912 C 141.992 379.301,142.937 378.800,143.172 378.800 C 143.407 378.800,143.600 378.650,143.600 378.468 C 143.600 378.285,144.095 377.880,144.700 377.568 C 145.305 377.256,145.890 376.911,146.000 376.801 C 147.098 375.699,150.479 375.158,151.000 376.000 C 151.136 376.220,151.597 376.400,152.024 376.400 C 152.451 376.400,152.800 376.580,152.800 376.800 C 152.800 377.020,153.160 377.200,153.600 377.200 C 154.040 377.200,154.400 377.380,154.400 377.600 C 154.400 377.820,154.940 378.000,155.600 378.000 C 156.260 378.000,156.800 378.180,156.800 378.400 C 156.800 378.620,157.160 378.800,157.600 378.800 C 158.040 378.800,158.400 378.980,158.400 379.200 C 158.400 379.420,158.839 379.600,159.376 379.600 C 159.913 379.600,160.464 379.780,160.600 380.000 C 160.736 380.220,161.366 380.400,162.000 380.400 C 162.634 380.400,163.264 380.580,163.400 380.800 C 163.536 381.020,164.267 381.200,165.024 381.200 C 165.781 381.200,166.400 381.380,166.400 381.600 C 166.400 381.820,166.839 382.000,167.376 382.000 C 167.913 382.000,168.464 382.180,168.600 382.400 C 168.736 382.620,169.276 382.800,169.800 382.800 C 170.324 382.800,170.864 382.980,171.000 383.200 C 171.136 383.420,171.676 383.600,172.200 383.600 C 172.724 383.600,173.264 383.780,173.400 384.000 C 173.536 384.220,174.267 384.400,175.024 384.400 C 175.781 384.400,176.400 384.580,176.400 384.800 C 176.400 385.020,177.120 385.200,178.000 385.200 C 178.880 385.200,179.600 385.380,179.600 385.600 C 179.600 385.820,180.112 386.000,180.738 386.000 C 182.176 386.000,183.367 387.244,183.009 388.371 C 182.864 388.827,182.906 389.200,183.102 389.200 C 183.619 389.200,185.600 392.348,185.600 393.169 C 185.600 393.553,185.735 394.002,185.900 394.167 C 186.065 394.332,186.215 394.587,186.234 394.733 C 186.321 395.433,187.199 397.152,187.592 397.395 C 187.834 397.545,187.928 397.997,187.800 398.400 C 187.672 398.803,187.762 399.253,188.000 399.400 C 188.791 399.889,190.391 402.757,190.180 403.308 C 190.065 403.606,190.338 404.182,190.786 404.587 C 191.234 404.992,191.600 405.634,191.600 406.013 C 191.600 406.392,191.876 406.931,192.213 407.211 C 192.551 407.491,192.753 407.918,192.663 408.160 C 192.493 408.618,193.779 411.315,194.714 412.461 C 195.010 412.824,195.212 413.364,195.162 413.661 C 195.025 414.479,195.808 416.110,196.745 416.953 C 197.205 417.368,197.475 417.878,197.346 418.088 C 197.094 418.495,198.573 421.737,199.541 422.900 C 199.862 423.285,199.978 423.600,199.800 423.600 C 199.622 423.600,199.762 423.915,200.111 424.300 C 200.591 424.829,201.362 424.997,203.273 424.986 C 230.702 424.840,230.954 424.817,230.482 422.562 C 230.418 422.253,230.530 422.000,230.732 422.000 C 230.935 422.000,231.208 421.460,231.340 420.800 C 231.515 419.923,231.806 419.600,232.422 419.600 C 233.149 419.600,233.228 419.437,233.000 418.400 C 232.834 417.645,232.897 417.200,233.168 417.200 C 233.406 417.200,233.600 416.838,233.600 416.395 C 233.600 415.550,234.126 414.454,235.300 412.849 C 235.685 412.323,236.000 411.410,236.000 410.821 C 236.000 410.233,236.360 409.364,236.800 408.892 C 237.240 408.420,237.600 407.756,237.600 407.417 C 237.600 407.078,237.780 406.800,238.000 406.800 C 238.220 406.800,238.400 406.342,238.400 405.783 C 238.400 405.224,238.760 404.380,239.200 403.908 C 239.640 403.436,240.000 402.734,240.000 402.348 C 240.000 401.963,240.180 401.536,240.400 401.400 C 240.620 401.264,240.800 400.886,240.800 400.560 C 240.800 400.233,241.160 399.580,241.600 399.108 C 242.040 398.636,242.400 397.833,242.400 397.325 C 242.400 396.816,242.580 396.400,242.800 396.400 C 243.020 396.400,243.200 395.860,243.200 395.200 C 243.200 394.540,243.350 394.000,243.532 394.000 C 243.715 394.000,244.120 393.505,244.432 392.900 C 245.397 391.030,245.949 390.826,250.076 390.813 C 252.215 390.806,254.064 390.621,254.200 390.400 C 254.336 390.179,256.130 390.000,258.200 390.000 C 260.270 390.000,262.064 389.821,262.200 389.600 C 262.336 389.380,263.416 389.200,264.600 389.200 C 265.784 389.200,266.864 389.020,267.000 388.800 C 267.136 388.580,268.126 388.400,269.200 388.400 C 270.274 388.400,271.264 388.220,271.400 388.000 C 271.536 387.780,272.436 387.600,273.400 387.600 C 274.364 387.600,275.264 387.420,275.400 387.200 C 275.536 386.980,276.346 386.800,277.200 386.800 C 278.054 386.800,278.864 386.620,279.000 386.400 C 279.136 386.180,279.946 386.000,280.800 386.000 C 281.654 386.000,282.464 385.820,282.600 385.600 C 282.736 385.380,283.456 385.200,284.200 385.200 C 284.944 385.200,285.664 385.020,285.800 384.800 C 285.936 384.580,286.476 384.400,287.000 384.400 C 287.524 384.400,288.064 384.220,288.200 384.000 C 288.336 383.780,288.876 383.600,289.400 383.600 C 289.924 383.600,290.464 383.420,290.600 383.200 C 290.736 382.980,291.467 382.800,292.224 382.800 C 292.981 382.800,293.600 382.620,293.600 382.400 C 293.600 382.180,294.129 382.000,294.776 382.000 C 295.423 382.000,296.075 381.803,296.223 381.562 C 296.372 381.322,296.923 381.207,297.447 381.307 C 298.074 381.427,298.400 381.303,298.400 380.945 C 298.400 380.606,298.854 380.400,299.600 380.400 C 300.260 380.400,300.800 380.220,300.800 380.000 C 300.800 379.780,301.160 379.600,301.600 379.600 C 302.040 379.600,302.400 379.433,302.400 379.228 C 302.400 379.023,302.805 378.770,303.300 378.665 C 303.795 378.561,303.168 378.491,301.906 378.510 C 300.644 378.529,299.489 378.423,299.339 378.273 C 298.884 377.817,297.977 377.966,297.343 378.600 C 296.865 379.078,295.571 379.200,290.995 379.200 C 287.595 379.200,285.146 379.363,285.000 379.600 C 284.549 380.330,257.636 380.118,256.208 379.374 C 255.552 379.032,254.968 378.898,254.908 379.076 C 254.751 379.550,242.695 379.204,242.093 378.708 C 241.807 378.473,240.035 378.324,238.031 378.368 C 235.878 378.416,234.373 378.280,234.214 378.023 C 234.070 377.790,232.894 377.600,231.600 377.600 C 230.306 377.600,229.136 377.420,229.000 377.200 C 228.864 376.980,227.233 376.800,225.376 376.800 C 223.392 376.800,222.000 376.635,222.000 376.400 C 222.000 376.180,221.235 375.988,220.300 375.974 C 218.354 375.945,214.198 375.131,213.760 374.694 C 213.599 374.532,212.607 374.400,211.557 374.400 C 210.507 374.400,209.536 374.220,209.400 374.000 C 209.264 373.780,208.443 373.600,207.576 373.600 C 206.709 373.600,206.000 373.420,206.000 373.200 C 206.000 372.980,205.201 372.800,204.224 372.800 C 203.247 372.800,202.336 372.620,202.200 372.400 C 202.064 372.180,201.434 372.000,200.800 372.000 C 200.166 372.000,199.536 371.820,199.400 371.600 C 199.264 371.380,198.533 371.200,197.776 371.200 C 197.019 371.200,196.400 371.020,196.400 370.800 C 196.400 370.580,195.871 370.400,195.224 370.400 C 194.577 370.400,193.936 370.220,193.800 370.000 C 193.664 369.780,193.034 369.600,192.400 369.600 C 191.766 369.600,191.136 369.420,191.000 369.200 C 190.864 368.980,190.324 368.800,189.800 368.800 C 189.276 368.800,188.736 368.620,188.600 368.400 C 188.464 368.180,187.924 368.000,187.400 368.000 C 186.876 368.000,186.336 367.820,186.200 367.600 C 186.064 367.380,185.434 367.200,184.800 367.200 C 184.166 367.200,183.536 367.020,183.400 366.800 C 183.264 366.580,182.713 366.400,182.176 366.400 C 181.639 366.400,181.200 366.220,181.200 366.000 C 181.200 365.780,180.840 365.600,180.400 365.600 C 179.960 365.600,179.600 365.420,179.600 365.200 C 179.600 364.980,179.240 364.800,178.800 364.800 C 178.360 364.800,178.000 364.620,178.000 364.400 C 178.000 364.180,177.460 364.000,176.800 364.000 C 176.140 364.000,175.600 363.820,175.600 363.600 C 175.600 363.380,175.245 363.200,174.812 363.200 C 174.379 363.200,173.383 362.840,172.600 362.400 C 171.817 361.960,170.911 361.600,170.588 361.600 C 170.265 361.600,170.000 361.420,170.000 361.200 C 170.000 360.980,169.640 360.800,169.200 360.800 C 168.760 360.800,168.400 360.620,168.400 360.400 C 168.400 360.180,168.040 360.000,167.600 360.000 C 167.160 360.000,166.800 359.820,166.800 359.600 C 166.800 359.380,166.566 359.200,166.280 359.200 C 165.544 359.200,163.607 358.259,163.603 357.900 C 163.601 357.735,163.240 357.600,162.800 357.600 C 162.360 357.600,162.000 357.420,162.000 357.200 C 162.000 356.980,161.640 356.800,161.200 356.800 C 160.760 356.800,160.400 356.620,160.400 356.400 C 160.400 356.180,160.040 356.000,159.600 356.000 C 159.160 356.000,158.800 355.820,158.800 355.600 C 158.800 355.380,158.440 355.200,158.000 355.200 C 157.560 355.200,157.200 355.064,157.200 354.898 C 157.200 354.731,156.694 354.371,156.075 354.097 C 155.456 353.824,154.564 353.240,154.092 352.800 C 153.620 352.360,153.001 352.000,152.717 351.999 C 152.433 351.999,151.570 351.459,150.800 350.800 C 150.030 350.141,149.175 349.601,148.900 349.601 C 148.625 349.600,148.400 349.420,148.400 349.200 C 148.400 348.980,148.080 348.800,147.688 348.800 C 147.297 348.800,146.717 348.440,146.400 348.000 C 146.083 347.560,145.591 347.200,145.308 347.200 C 145.025 347.200,144.228 346.660,143.537 346.000 C 142.846 345.340,142.078 344.800,141.829 344.800 C 141.580 344.800,141.117 344.440,140.800 344.000 C 140.483 343.560,140.032 343.200,139.799 343.200 C 139.566 343.200,138.431 342.300,137.278 341.200 C 136.125 340.100,135.018 339.200,134.819 339.200 C 134.619 339.200,132.631 337.400,130.400 335.200 C 128.169 333.000,126.086 331.200,125.772 331.200 C 125.457 331.200,125.200 330.936,125.200 330.614 C 125.200 330.292,124.840 329.835,124.400 329.600 C 123.960 329.365,123.600 328.999,123.600 328.789 C 123.600 328.578,121.980 326.773,120.000 324.778 C 118.020 322.783,116.400 320.964,116.400 320.736 C 116.400 320.508,115.860 319.817,115.200 319.200 C 114.540 318.583,114.000 317.811,114.000 317.482 C 114.000 317.154,113.739 316.786,113.421 316.663 C 113.102 316.541,112.536 315.849,112.162 315.126 C 111.787 314.402,110.968 313.331,110.341 312.745 C 109.713 312.158,109.200 311.391,109.200 311.040 C 109.200 310.688,109.020 310.400,108.800 310.400 C 108.580 310.400,108.400 310.164,108.400 309.875 C 108.400 309.587,108.040 308.964,107.600 308.492 C 107.160 308.020,106.800 307.396,106.800 307.105 C 106.800 306.814,106.440 306.317,106.000 306.000 C 105.560 305.683,105.200 305.103,105.200 304.712 C 105.200 304.320,105.065 303.999,104.900 303.997 C 104.735 303.995,104.402 303.590,104.160 303.097 C 102.930 300.592,101.728 298.521,101.100 297.825 C 100.715 297.398,100.400 296.723,100.400 296.325 C 100.400 295.926,100.254 295.600,100.075 295.600 C 99.896 295.600,99.502 294.970,99.200 294.200 C 98.898 293.430,98.504 292.800,98.325 292.800 C 98.146 292.800,98.000 292.458,98.000 292.041 C 98.000 291.623,97.460 290.255,96.800 289.000 C 96.140 287.745,95.600 286.467,95.600 286.159 C 95.600 285.852,95.420 285.600,95.200 285.600 C 94.980 285.600,94.800 285.258,94.800 284.841 C 94.800 284.423,94.260 283.055,93.600 281.800 C 92.940 280.545,92.400 279.265,92.400 278.954 C 92.400 278.405,92.226 277.969,91.262 276.105 C 91.008 275.613,90.800 274.848,90.800 274.405 C 90.800 273.962,90.620 273.600,90.400 273.600 C 90.180 273.600,90.000 273.071,90.000 272.424 C 90.000 271.777,89.820 271.136,89.600 271.000 C 89.380 270.864,89.200 270.234,89.200 269.600 C 89.200 268.966,89.020 268.336,88.800 268.200 C 88.580 268.064,88.400 267.513,88.400 266.976 C 88.400 266.439,88.220 266.000,88.000 266.000 C 87.780 266.000,87.600 265.471,87.600 264.824 C 87.600 264.177,87.420 263.536,87.200 263.400 C 86.980 263.264,86.800 262.724,86.800 262.200 C 86.800 261.676,86.620 261.136,86.400 261.000 C 86.180 260.864,86.000 260.043,86.000 259.176 C 86.000 258.309,85.820 257.600,85.600 257.600 C 85.380 257.600,85.200 256.891,85.200 256.024 C 85.200 255.157,85.020 254.336,84.800 254.200 C 84.580 254.064,84.400 253.254,84.400 252.400 C 84.400 251.546,84.220 250.736,84.000 250.600 C 83.780 250.464,83.600 249.673,83.600 248.843 C 83.600 248.013,83.465 247.199,83.301 247.034 C 82.904 246.637,82.072 241.841,82.032 239.724 C 82.014 238.802,81.820 237.936,81.600 237.800 C 81.380 237.664,81.200 236.044,81.200 234.200 C 81.200 232.356,81.020 230.736,80.800 230.600 C 80.580 230.464,80.400 229.139,80.400 227.656 C 80.400 226.173,80.232 224.789,80.027 224.580 C 79.615 224.162,79.285 219.558,78.968 209.817 C 78.854 206.306,78.610 203.246,78.427 203.017 C 77.700 202.107,78.445 180.226,79.230 179.420 C 79.434 179.211,79.600 178.277,79.600 177.344 C 79.600 176.411,79.780 175.536,80.000 175.400 C 80.220 175.264,80.400 174.274,80.400 173.200 C 80.400 172.126,80.580 171.136,80.800 171.000 C 81.020 170.864,81.200 170.038,81.200 169.164 C 81.200 168.232,81.414 167.493,81.718 167.376 C 82.048 167.250,82.180 166.688,82.080 165.836 C 81.994 165.098,82.121 164.373,82.362 164.224 C 82.603 164.075,82.800 163.344,82.800 162.600 C 82.800 161.856,82.980 161.136,83.200 161.000 C 83.420 160.864,83.600 160.431,83.600 160.038 C 83.600 159.202,84.734 156.800,85.129 156.800 C 85.278 156.800,85.423 156.215,85.452 155.500 C 85.537 153.358,86.082 150.800,86.453 150.800 C 86.644 150.800,86.800 150.451,86.800 150.024 C 86.800 149.597,86.980 149.136,87.200 149.000 C 87.420 148.864,87.600 148.313,87.600 147.776 C 87.600 147.239,87.735 146.799,87.900 146.797 C 88.259 146.793,89.200 144.856,89.200 144.120 C 89.200 143.834,89.380 143.600,89.600 143.600 C 89.820 143.600,90.000 143.245,90.000 142.812 C 90.000 142.379,90.360 141.383,90.800 140.600 C 91.240 139.817,91.600 138.911,91.600 138.588 C 91.600 138.265,91.780 138.000,92.000 138.000 C 92.220 138.000,92.400 137.640,92.400 137.200 C 92.400 136.760,92.535 136.399,92.700 136.397 C 93.011 136.394,94.000 134.497,94.000 133.904 C 94.000 133.718,94.360 133.180,94.800 132.708 C 95.240 132.236,95.600 131.613,95.600 131.325 C 95.600 131.036,95.780 130.800,96.000 130.800 C 96.220 130.800,96.400 130.440,96.400 130.000 C 96.400 129.560,96.580 129.200,96.800 129.200 C 97.020 129.200,97.200 128.964,97.200 128.675 C 97.200 128.387,97.560 127.764,98.000 127.292 C 98.440 126.820,98.800 126.196,98.800 125.905 C 98.800 125.614,99.160 125.117,99.600 124.800 C 100.040 124.483,100.400 123.943,100.400 123.600 C 100.400 123.257,100.760 122.717,101.200 122.400 C 101.640 122.083,102.000 121.543,102.000 121.200 C 102.000 120.857,102.360 120.317,102.800 120.000 C 103.240 119.683,103.600 119.220,103.600 118.971 C 103.600 118.722,104.140 117.954,104.800 117.263 C 105.460 116.572,106.000 115.812,106.000 115.572 C 106.000 115.333,106.720 114.446,107.600 113.600 C 108.480 112.754,109.200 111.857,109.200 111.605 C 109.200 111.354,110.064 110.305,111.121 109.274 C 112.177 108.243,113.161 107.085,113.308 106.700 C 113.455 106.315,113.924 106.000,114.350 106.000 C 114.892 106.000,115.070 105.789,114.942 105.299 C 114.819 104.829,115.161 104.359,115.979 103.876 C 116.651 103.479,117.200 102.979,117.200 102.764 C 117.200 102.136,119.915 99.600,120.587 99.600 C 120.933 99.600,121.200 99.252,121.200 98.800 C 121.200 98.267,121.467 98.000,122.000 98.000 C 122.452 98.000,122.800 97.733,122.800 97.387 C 122.800 97.051,123.100 96.660,123.466 96.519 C 123.832 96.379,125.376 95.034,126.897 93.532 C 128.417 92.029,129.836 90.800,130.049 90.800 C 130.262 90.800,130.886 90.350,131.436 89.800 C 131.986 89.250,132.600 88.800,132.800 88.800 C 133.000 88.800,133.614 88.350,134.164 87.800 C 134.714 87.250,135.325 86.800,135.522 86.800 C 135.720 86.800,136.446 86.260,137.137 85.600 C 137.828 84.940,138.620 84.400,138.898 84.400 C 139.175 84.400,139.912 83.860,140.535 83.200 C 141.158 82.540,141.923 82.000,142.234 82.000 C 142.545 82.000,142.800 81.820,142.800 81.600 C 142.800 81.380,143.120 81.200,143.512 81.200 C 143.903 81.200,144.483 80.840,144.800 80.400 C 145.117 79.960,145.657 79.600,146.000 79.600 C 146.343 79.600,146.883 79.240,147.200 78.800 C 147.517 78.360,148.097 78.000,148.488 78.000 C 148.880 78.000,149.200 77.820,149.200 77.600 C 149.200 77.380,149.560 77.200,150.000 77.200 C 150.440 77.200,150.801 77.065,150.803 76.900 C 150.807 76.563,152.725 75.600,153.391 75.600 C 153.629 75.600,154.083 75.240,154.400 74.800 C 154.717 74.360,155.297 74.000,155.688 74.000 C 156.080 74.000,156.400 73.820,156.400 73.600 C 156.400 73.380,156.634 73.200,156.920 73.200 C 157.656 73.200,159.593 72.259,159.597 71.900 C 159.599 71.735,159.960 71.600,160.400 71.600 C 160.840 71.600,161.200 71.420,161.200 71.200 C 161.200 70.980,161.560 70.800,162.000 70.800 C 162.440 70.800,162.800 70.620,162.800 70.400 C 162.800 70.180,163.065 70.000,163.388 70.000 C 163.711 70.000,164.617 69.640,165.400 69.200 C 166.183 68.760,167.179 68.400,167.612 68.400 C 168.045 68.400,168.400 68.220,168.400 68.000 C 168.400 67.780,168.816 67.600,169.325 67.600 C 169.833 67.600,170.636 67.240,171.108 66.800 C 171.580 66.360,172.503 66.000,173.160 66.000 C 173.816 66.000,174.464 65.820,174.600 65.600 C 174.736 65.380,175.197 65.200,175.624 65.200 C 176.051 65.200,176.400 65.020,176.400 64.800 C 176.400 64.580,176.839 64.400,177.376 64.400 C 177.913 64.400,178.464 64.220,178.600 64.000 C 178.736 63.780,179.366 63.600,180.000 63.600 C 180.634 63.600,181.264 63.420,181.400 63.200 C 181.536 62.980,182.166 62.800,182.800 62.800 C 183.434 62.800,184.064 62.620,184.200 62.400 C 184.336 62.180,184.966 62.000,185.600 62.000 C 186.234 62.000,186.864 61.820,187.000 61.600 C 187.136 61.380,187.676 61.200,188.200 61.200 C 188.724 61.200,189.264 61.020,189.400 60.800 C 189.536 60.580,190.267 60.400,191.024 60.400 C 191.781 60.400,192.400 60.220,192.400 60.000 C 192.400 59.780,193.379 59.600,194.576 59.600 C 195.773 59.600,196.877 59.400,197.028 59.155 C 197.198 58.879,198.117 58.777,199.435 58.886 C 200.969 59.014,201.624 58.914,201.771 58.532 C 201.911 58.165,202.780 58.000,204.564 58.000 C 205.988 58.000,207.264 57.820,207.400 57.600 C 207.536 57.380,208.735 57.200,210.064 57.200 L 212.481 57.200 212.289 58.900 C 212.027 61.234,211.720 62.430,210.917 64.247 C 210.540 65.101,210.204 66.422,210.172 67.181 C 210.139 67.941,209.907 68.631,209.656 68.715 C 209.002 68.933,209.092 71.813,209.771 72.376 C 210.150 72.690,210.269 73.295,210.127 74.174 C 210.002 74.942,210.098 75.614,210.356 75.773 C 210.600 75.924,210.800 76.487,210.800 77.024 C 210.800 77.561,210.980 78.000,211.200 78.000 C 211.420 78.000,211.600 78.360,211.600 78.800 C 211.600 79.240,211.780 79.600,212.000 79.600 C 212.220 79.600,212.400 79.882,212.400 80.226 C 212.400 80.570,212.900 81.273,213.512 81.787 C 214.123 82.302,214.887 83.235,215.209 83.861 C 215.814 85.037,217.558 86.799,218.117 86.800 C 218.292 86.800,218.922 87.260,219.517 87.823 C 220.113 88.385,221.095 89.144,221.700 89.509 C 222.305 89.874,222.800 90.314,222.800 90.486 C 222.800 90.659,223.120 90.800,223.512 90.800 C 223.903 90.800,224.483 91.160,224.800 91.600 C 225.117 92.040,225.697 92.400,226.088 92.400 C 226.480 92.400,226.800 92.580,226.800 92.800 C 226.800 93.020,227.160 93.200,227.600 93.200 C 228.040 93.200,228.400 93.380,228.400 93.600 C 228.400 93.820,228.755 94.000,229.188 94.000 C 229.621 94.000,230.617 94.360,231.400 94.800 C 232.183 95.240,233.089 95.600,233.412 95.600 C 233.735 95.600,234.000 95.780,234.000 96.000 C 234.000 96.220,234.720 96.400,235.600 96.400 C 236.480 96.400,237.200 96.580,237.200 96.800 C 237.200 97.020,237.920 97.200,238.800 97.200 C 239.680 97.200,240.400 97.380,240.400 97.600 C 240.400 98.037,246.894 98.172,247.323 97.744 C 247.464 97.603,247.330 97.018,247.025 96.444 C 246.721 95.870,246.189 94.750,245.843 93.955 C 245.498 93.160,244.941 92.283,244.607 92.006 C 244.273 91.729,244.000 91.175,244.000 90.775 C 244.000 90.375,243.820 89.936,243.600 89.800 C 243.380 89.664,243.200 89.119,243.200 88.589 C 243.200 88.058,242.840 86.983,242.400 86.200 C 241.960 85.417,241.600 84.432,241.600 84.011 C 241.600 83.591,241.420 83.136,241.200 83.000 C 240.980 82.864,240.800 82.054,240.800 81.200 C 240.800 80.346,240.620 79.536,240.400 79.400 C 240.168 79.257,240.000 77.070,240.000 74.200 C 240.000 71.330,240.168 69.143,240.400 69.000 C 240.620 68.864,240.800 68.144,240.800 67.400 C 240.800 66.656,240.980 65.936,241.200 65.800 C 241.420 65.664,241.600 65.119,241.600 64.589 C 241.600 64.058,241.960 62.983,242.400 62.200 C 242.840 61.417,243.200 60.499,243.200 60.160 C 243.200 59.821,243.740 58.759,244.400 57.800 C 245.060 56.841,245.600 55.891,245.600 55.690 C 245.600 55.489,245.960 54.998,246.400 54.600 C 246.840 54.202,247.200 53.709,247.200 53.506 C 247.200 53.148,248.423 51.602,251.815 47.671 C 253.675 45.516,260.322 39.169,262.572 37.400 C 264.103 36.196,264.534 35.892,267.442 33.954 C 268.305 33.379,269.256 32.614,269.555 32.254 C 269.854 31.894,270.318 31.600,270.587 31.600 C 270.856 31.600,271.406 31.236,271.809 30.790 C 272.212 30.345,272.733 30.044,272.967 30.122 C 273.201 30.200,273.730 29.834,274.144 29.308 C 274.558 28.782,275.113 28.434,275.377 28.536 C 275.641 28.637,276.060 28.396,276.307 28.000 C 276.842 27.143,279.149 25.921,279.649 26.230 C 279.842 26.349,280.000 26.287,280.000 26.091 C 280.000 25.748,283.129 23.567,285.198 22.468 C 286.141 21.967,286.288 22.035,287.700 23.619 L 289.200 25.303 289.200 29.228 C 289.200 31.413,289.023 33.262,288.800 33.400 C 288.580 33.536,288.400 34.346,288.400 35.200 C 288.400 36.054,288.220 36.864,288.000 37.000 C 287.780 37.136,287.600 37.869,287.600 38.629 C 287.600 39.389,287.420 40.368,287.200 40.805 C 286.980 41.242,286.620 41.958,286.400 42.395 C 286.180 42.832,286.000 43.541,286.000 43.971 C 286.000 44.401,285.820 44.864,285.600 45.000 C 285.380 45.136,285.200 45.766,285.200 46.400 C 285.200 47.034,285.020 47.664,284.800 47.800 C 284.580 47.936,284.400 48.579,284.400 49.229 C 284.400 50.365,284.284 50.718,283.262 52.695 C 283.008 53.187,282.800 53.952,282.800 54.395 C 282.800 54.838,282.620 55.200,282.400 55.200 C 282.180 55.200,282.000 55.560,282.000 56.000 C 282.000 56.440,281.820 56.800,281.600 56.800 C 281.380 56.800,281.200 57.239,281.200 57.776 C 281.200 58.313,281.020 58.864,280.800 59.000 C 280.580 59.136,280.400 59.597,280.400 60.024 C 280.400 60.451,280.161 60.800,279.869 60.800 C 279.507 60.800,279.394 61.181,279.515 62.000 C 279.620 62.720,279.513 63.200,279.245 63.200 C 279.000 63.200,278.800 63.560,278.800 64.000 C 278.800 64.440,278.620 64.800,278.400 64.800 C 278.180 64.800,278.000 65.070,278.000 65.400 C 278.000 66.087,280.195 66.256,280.600 65.600 C 280.736 65.380,281.791 65.200,282.944 65.200 C 284.097 65.200,285.230 65.010,285.463 64.777 C 286.158 64.082,301.252 64.186,301.779 64.889 C 302.065 65.271,302.747 65.397,303.906 65.283 C 305.625 65.114,308.400 66.055,308.400 66.806 C 308.400 67.009,308.671 67.071,309.003 66.943 C 309.714 66.671,312.400 67.856,312.400 68.442 C 312.400 68.665,312.578 68.737,312.797 68.602 C 313.715 68.034,322.000 75.200,322.000 76.563 C 322.000 76.845,322.360 77.402,322.800 77.800 C 323.240 78.198,323.600 78.766,323.600 79.062 C 323.600 79.358,323.780 79.600,324.000 79.600 C 324.220 79.600,324.400 79.932,324.400 80.338 C 324.400 80.744,324.760 81.402,325.200 81.800 C 325.640 82.198,326.005 82.721,326.011 82.962 C 326.017 83.203,327.097 84.465,328.411 85.767 C 329.725 87.068,330.809 88.328,330.820 88.567 C 330.830 88.805,331.549 89.720,332.417 90.600 C 333.284 91.480,333.996 92.423,333.997 92.697 C 333.999 92.970,334.360 93.418,334.800 93.693 C 335.240 93.968,335.600 94.447,335.600 94.758 C 335.600 95.069,336.320 96.009,337.200 96.846 C 338.080 97.683,338.800 98.552,338.800 98.777 C 338.800 99.002,339.430 99.834,340.200 100.627 C 340.970 101.420,341.600 102.225,341.600 102.416 C 341.600 102.607,342.050 103.214,342.600 103.764 C 343.150 104.314,343.600 104.958,343.600 105.195 C 343.600 105.433,344.140 106.155,344.800 106.800 C 345.460 107.445,346.000 108.205,346.000 108.488 C 346.000 108.771,346.540 109.512,347.200 110.135 C 347.860 110.758,348.400 111.523,348.400 111.834 C 348.400 112.145,348.559 112.400,348.754 112.400 C 348.949 112.400,349.395 112.985,349.744 113.700 C 350.094 114.415,350.834 115.424,351.390 115.942 C 351.945 116.460,352.400 117.069,352.400 117.295 C 352.400 117.521,352.728 117.997,353.128 118.353 C 353.529 118.709,354.294 119.809,354.828 120.798 C 355.363 121.787,356.115 122.945,356.500 123.373 C 356.885 123.801,357.200 124.304,357.200 124.492 C 357.200 124.680,357.560 125.220,358.000 125.692 C 358.440 126.164,358.800 126.787,358.800 127.075 C 358.800 127.364,358.980 127.600,359.200 127.600 C 359.420 127.600,359.600 127.836,359.600 128.125 C 359.600 128.413,359.916 128.998,360.303 129.425 C 360.689 129.851,361.226 130.695,361.494 131.300 C 361.763 131.905,362.186 132.400,362.434 132.400 C 362.682 132.400,362.796 132.634,362.686 132.921 C 362.576 133.207,362.917 133.856,363.443 134.363 C 363.969 134.869,364.400 135.453,364.400 135.659 C 364.400 135.865,364.583 136.251,364.807 136.517 C 365.677 137.550,367.187 139.864,367.862 141.200 C 368.251 141.970,368.807 142.843,369.096 143.140 C 369.386 143.437,369.894 144.330,370.227 145.126 C 370.559 145.921,370.967 146.668,371.133 146.786 C 371.660 147.159,373.200 150.021,373.200 150.627 C 373.200 150.946,373.560 151.516,374.000 151.893 C 374.440 152.270,374.800 152.806,374.800 153.086 C 374.800 153.365,375.320 154.057,375.956 154.623 C 376.626 155.221,377.040 155.936,376.942 156.327 C 376.832 156.765,377.208 157.245,378.022 157.702 C 378.709 158.088,379.474 158.943,379.723 159.602 C 379.972 160.261,380.311 160.800,380.477 160.800 C 380.897 160.800,382.111 163.222,381.832 163.501 C 381.707 163.626,381.975 163.988,382.428 164.304 C 383.187 164.836,384.108 166.452,384.192 167.400 C 384.211 167.620,384.549 168.430,384.943 169.200 C 386.736 172.706,387.312 179.001,386.077 181.600 C 385.129 183.595,383.919 185.187,383.329 185.216 C 383.148 185.225,382.377 185.765,381.615 186.416 C 380.853 187.067,379.818 187.600,379.315 187.600 C 378.812 187.600,378.400 187.780,378.400 188.000 C 378.400 188.220,377.988 188.400,377.485 188.400 C 376.432 188.400,373.320 191.436,372.154 193.600 C 371.476 194.859,370.158 196.691,368.682 198.425 C 368.389 198.769,368.227 199.282,368.321 199.564 C 368.416 199.847,368.292 200.511,368.046 201.039 C 367.801 201.568,367.382 202.495,367.117 203.100 C 366.851 203.705,366.464 204.431,366.256 204.713 C 366.049 204.996,365.839 205.806,365.789 206.513 C 365.665 208.255,364.916 210.961,364.521 211.093 C 364.345 211.152,364.264 213.562,364.341 216.449 C 364.426 219.597,364.315 222.038,364.064 222.549 C 363.834 223.017,363.564 224.120,363.464 225.000 C 363.219 227.150,362.643 229.231,361.853 230.815 C 361.494 231.534,361.200 232.369,361.200 232.670 C 361.200 232.971,360.764 233.416,360.232 233.658 C 359.665 233.916,359.350 234.327,359.473 234.646 C 359.589 234.947,359.395 235.304,359.044 235.439 C 358.692 235.573,358.515 235.863,358.651 236.082 C 359.232 237.023,352.125 243.172,351.151 242.570 C 350.958 242.451,350.800 242.535,350.800 242.758 C 350.800 243.330,348.123 244.533,347.436 244.269 C 347.123 244.149,346.762 244.322,346.635 244.654 C 346.460 245.110,345.864 245.233,344.207 245.156 C 343.000 245.100,341.896 245.171,341.753 245.313 C 341.366 245.701,333.921 245.154,333.000 244.670 C 332.560 244.439,331.633 244.295,330.940 244.352 C 330.248 244.408,329.562 244.262,329.417 244.027 C 329.272 243.792,328.668 243.597,328.076 243.594 C 326.881 243.587,324.905 242.946,322.839 241.893 C 322.090 241.512,321.145 241.200,320.739 241.200 C 320.332 241.200,320.000 241.020,320.000 240.800 C 320.000 240.580,319.728 240.400,319.395 240.400 C 319.062 240.400,318.432 240.220,317.995 240.000 C 317.558 239.780,316.842 239.420,316.405 239.200 C 315.968 238.980,315.338 238.800,315.005 238.800 C 314.672 238.800,314.400 238.620,314.400 238.400 C 314.400 238.180,314.124 238.000,313.787 238.000 C 313.451 238.000,313.079 237.750,312.962 237.444 C 312.838 237.123,312.422 236.974,311.974 237.091 C 311.548 237.202,311.200 237.136,311.200 236.944 C 311.200 236.752,310.615 236.343,309.900 236.035 C 309.185 235.727,308.122 235.143,307.538 234.737 C 306.954 234.332,306.223 234.000,305.914 234.000 C 305.604 234.000,304.964 233.640,304.492 233.200 C 304.020 232.760,303.480 232.400,303.292 232.400 C 303.104 232.400,302.602 232.085,302.175 231.699 C 301.749 231.314,300.511 230.549,299.424 229.999 C 298.337 229.450,296.856 228.442,296.131 227.760 C 295.407 227.077,294.720 226.613,294.606 226.728 C 294.491 226.843,293.993 226.591,293.498 226.168 C 292.171 225.033,290.916 224.400,289.993 224.400 C 289.543 224.400,289.085 224.167,288.976 223.882 C 288.850 223.552,288.288 223.420,287.436 223.520 C 286.698 223.606,285.973 223.479,285.824 223.238 C 285.675 222.997,285.203 222.800,284.776 222.800 C 284.349 222.800,284.000 222.555,284.000 222.255 C 284.000 221.897,283.674 221.773,283.047 221.893 C 282.523 221.993,281.972 221.878,281.823 221.638 C 281.675 221.397,281.203 221.200,280.776 221.200 C 280.349 221.200,280.000 221.020,280.000 220.800 C 280.000 220.580,279.724 220.400,279.387 220.400 C 279.051 220.400,278.679 220.150,278.562 219.844 C 278.438 219.523,278.022 219.374,277.574 219.491 C 277.148 219.602,276.800 219.492,276.800 219.247 C 276.800 219.001,276.440 218.800,276.000 218.800 C 275.560 218.800,275.200 218.648,275.200 218.463 C 275.200 218.277,274.403 217.716,273.429 217.215 C 272.455 216.714,271.161 215.785,270.554 215.152 C 269.947 214.518,269.259 213.999,269.025 213.999 C 268.791 213.998,267.430 212.810,266.000 211.358 C 264.570 209.906,262.995 208.311,262.500 207.813 C 262.005 207.315,261.600 206.803,261.600 206.674 C 261.600 206.545,261.105 205.666,260.500 204.720 C 258.674 201.864,258.452 201.488,257.203 199.111 C 256.541 197.853,256.000 196.548,256.000 196.211 C 256.000 195.875,255.820 195.600,255.600 195.600 C 255.380 195.600,255.200 194.801,255.200 193.824 C 255.200 192.847,255.020 191.936,254.800 191.800 C 254.255 191.463,254.289 183.504,254.844 181.446 C 256.200 176.418,258.326 173.041,261.701 170.557 C 263.014 169.591,264.293 168.796,264.544 168.791 C 264.795 168.786,265.450 168.430,266.000 168.000 C 266.550 167.570,267.394 167.214,267.876 167.209 C 268.358 167.204,268.872 167.008,269.017 166.773 C 269.162 166.538,269.848 166.383,270.540 166.429 C 271.233 166.475,272.307 166.307,272.926 166.056 C 274.582 165.385,283.430 165.452,284.074 166.141 C 284.409 166.500,285.152 166.617,286.282 166.490 C 287.547 166.347,288.044 166.450,288.213 166.889 C 288.361 167.276,288.790 167.414,289.449 167.289 C 290.004 167.182,290.850 167.274,291.329 167.492 C 292.841 168.181,295.024 168.800,295.941 168.800 C 296.427 168.800,296.924 169.059,297.046 169.375 C 297.167 169.691,297.523 169.851,297.836 169.731 C 298.523 169.467,301.200 170.670,301.200 171.242 C 301.200 171.465,301.397 171.525,301.638 171.376 C 302.033 171.132,302.817 171.390,304.895 172.447 C 305.277 172.641,305.862 172.800,306.195 172.800 C 306.528 172.800,306.800 172.980,306.800 173.200 C 306.800 173.420,307.134 173.600,307.542 173.600 C 307.949 173.600,308.762 174.043,309.347 174.586 C 309.962 175.155,310.670 175.471,311.025 175.335 C 311.364 175.205,312.037 175.452,312.520 175.883 C 313.004 176.315,314.075 176.976,314.900 177.353 C 315.725 177.729,316.400 178.203,316.400 178.406 C 316.400 178.609,316.668 178.672,316.997 178.546 C 317.337 178.415,317.699 178.592,317.839 178.956 C 317.973 179.308,318.233 179.503,318.416 179.390 C 318.756 179.180,320.964 180.301,322.862 181.647 C 323.446 182.061,324.043 182.400,324.190 182.400 C 324.336 182.400,325.241 182.940,326.200 183.600 C 327.159 184.260,328.109 184.800,328.310 184.800 C 328.511 184.800,328.992 185.150,329.379 185.577 C 330.072 186.343,331.969 185.292,332.011 184.118 C 332.018 183.943,332.738 182.997,333.611 182.014 C 334.485 181.032,335.204 180.042,335.209 179.814 C 335.214 179.587,335.934 178.781,336.809 178.024 C 337.684 177.267,338.400 176.440,338.400 176.186 C 338.400 175.932,338.760 175.398,339.200 175.000 C 339.640 174.602,340.000 174.062,340.000 173.800 C 340.000 173.538,340.360 172.998,340.800 172.600 C 341.240 172.202,341.600 171.544,341.600 171.138 C 341.600 170.732,341.735 170.399,341.900 170.397 C 342.307 170.393,343.200 168.413,343.200 167.515 C 343.200 167.116,343.380 166.432,343.600 165.995 C 343.820 165.558,344.180 164.842,344.400 164.405 C 344.620 163.968,344.800 163.079,344.800 162.429 C 344.800 161.779,344.980 161.136,345.200 161.000 C 345.420 160.864,345.600 159.899,345.600 158.856 C 345.600 157.813,345.768 156.789,345.973 156.580 C 346.749 155.788,347.541 132.581,346.816 131.856 C 346.568 131.608,346.398 129.171,346.395 125.820 C 346.392 122.729,346.285 119.812,346.158 119.337 C 345.883 118.313,344.547 117.840,344.234 118.657 C 344.053 119.129,342.371 119.213,334.308 119.157 C 328.969 119.120,323.627 119.114,322.438 119.145 L 320.276 119.200 321.438 120.200 C 322.077 120.749,322.785 121.199,323.012 121.200 C 323.238 121.200,323.683 121.560,324.000 122.000 C 324.317 122.440,324.772 122.800,325.010 122.800 C 325.249 122.800,326.131 123.430,326.972 124.200 C 327.813 124.970,328.620 125.600,328.767 125.600 C 328.913 125.600,329.701 126.230,330.518 127.000 C 331.334 127.770,332.186 128.400,332.411 128.400 C 332.637 128.400,333.615 129.194,334.586 130.165 C 335.557 131.136,336.694 132.039,337.112 132.172 C 337.530 132.305,338.102 132.905,338.383 133.507 C 338.664 134.108,339.052 134.913,339.247 135.295 C 339.733 136.250,339.694 142.295,339.200 142.600 C 338.980 142.736,338.800 143.276,338.800 143.800 C 338.800 144.324,338.620 144.864,338.400 145.000 C 338.180 145.136,338.000 145.597,338.000 146.024 C 338.000 146.451,337.820 146.800,337.600 146.800 C 337.380 146.800,337.200 147.160,337.200 147.600 C 337.200 148.040,337.020 148.400,336.800 148.400 C 336.580 148.400,336.400 148.760,336.400 149.200 C 336.400 149.640,336.220 150.000,336.000 150.000 C 335.780 150.000,335.600 150.225,335.600 150.500 C 335.599 150.775,335.149 151.523,334.600 152.162 C 334.050 152.801,333.600 153.479,333.600 153.669 C 333.600 153.858,332.790 154.790,331.800 155.738 C 330.810 156.687,330.000 157.653,330.000 157.885 C 330.000 158.118,329.505 158.627,328.900 159.017 C 328.295 159.407,327.303 160.237,326.697 160.863 C 325.420 162.179,323.534 162.386,322.723 161.300 C 322.435 160.915,321.705 160.345,321.100 160.032 C 320.495 159.720,320.000 159.315,320.000 159.132 C 320.000 158.950,319.640 158.800,319.200 158.800 C 318.760 158.800,318.400 158.620,318.400 158.400 C 318.400 158.180,318.164 158.000,317.875 158.000 C 317.587 158.000,316.964 157.640,316.492 157.200 C 316.020 156.760,315.356 156.400,315.017 156.400 C 314.678 156.400,314.400 156.220,314.400 156.000 C 314.400 155.780,314.164 155.600,313.875 155.600 C 313.587 155.600,312.964 155.240,312.492 154.800 C 312.020 154.360,311.356 154.000,311.017 154.000 C 310.678 154.000,310.400 153.820,310.400 153.600 C 310.400 153.380,310.164 153.200,309.875 153.200 C 309.587 153.200,308.955 152.831,308.470 152.380 C 307.986 151.928,307.423 151.662,307.219 151.788 C 307.016 151.914,306.672 151.700,306.455 151.312 C 306.238 150.924,305.931 150.735,305.774 150.893 C 305.454 151.213,303.200 150.005,303.200 149.514 C 303.200 149.341,302.840 149.200,302.400 149.200 C 301.960 149.200,301.600 149.020,301.600 148.800 C 301.600 148.580,301.240 148.400,300.800 148.400 C 300.360 148.400,300.000 148.220,300.000 148.000 C 300.000 147.780,299.640 147.600,299.200 147.600 C 298.760 147.600,298.400 147.420,298.400 147.200 C 298.400 146.980,298.040 146.800,297.600 146.800 C 297.160 146.800,296.800 146.605,296.800 146.367 C 296.800 146.128,296.575 146.014,296.300 146.112 C 295.677 146.334,293.600 145.318,293.600 144.790 C 293.600 144.575,293.240 144.400,292.800 144.400 C 292.360 144.400,292.000 144.201,292.000 143.957 C 292.000 143.714,291.723 143.621,291.385 143.750 C 291.047 143.880,290.676 143.742,290.561 143.443 C 290.447 143.144,289.876 142.900,289.293 142.900 C 288.710 142.900,288.165 142.696,288.083 142.448 C 288.000 142.199,287.781 142.088,287.596 142.202 C 287.412 142.316,286.415 141.960,285.382 141.411 C 284.349 140.862,283.344 140.511,283.149 140.631 C 282.954 140.752,282.682 140.559,282.546 140.202 C 282.409 139.846,282.054 139.647,281.758 139.761 C 281.078 140.022,278.400 138.926,278.400 138.387 C 278.400 138.158,277.971 138.092,277.404 138.235 C 276.723 138.406,276.337 138.300,276.184 137.902 C 276.045 137.540,275.606 137.386,275.027 137.497 C 274.514 137.595,273.972 137.478,273.823 137.238 C 273.675 136.997,273.128 136.800,272.610 136.800 C 272.091 136.800,270.826 136.440,269.800 136.000 C 268.774 135.560,267.493 135.200,266.954 135.200 C 266.416 135.200,265.879 134.950,265.762 134.644 C 265.638 134.322,265.222 134.174,264.772 134.291 C 264.345 134.403,263.731 134.275,263.408 134.007 C 263.085 133.739,262.141 133.461,261.310 133.391 C 260.480 133.320,258.900 133.055,257.800 132.802 C 256.700 132.549,254.990 132.248,254.000 132.132 C 253.010 132.017,252.029 131.760,251.820 131.561 C 251.611 131.363,250.768 131.200,249.946 131.200 C 249.124 131.200,247.945 130.994,247.326 130.741 C 246.707 130.489,244.888 130.325,243.284 130.377 C 241.601 130.432,240.144 130.285,239.836 130.030 C 239.063 129.388,218.605 129.356,217.000 129.993 C 216.340 130.256,214.954 130.392,213.919 130.296 C 212.885 130.200,211.874 130.286,211.674 130.486 C 211.473 130.687,210.224 130.891,208.900 130.939 C 207.575 130.987,206.246 131.215,205.946 131.446 C 205.645 131.677,204.320 132.089,203.000 132.363 C 201.680 132.636,199.944 133.049,199.143 133.280 C 198.341 133.511,197.475 133.570,197.217 133.411 C 196.960 133.252,196.414 133.425,196.003 133.797 C 195.548 134.209,194.948 134.374,194.462 134.220 C 194.025 134.081,193.552 134.155,193.410 134.384 C 193.269 134.613,192.733 134.800,192.219 134.800 C 191.706 134.800,191.192 135.044,191.077 135.343 C 190.894 135.819,189.138 136.461,187.715 136.572 C 187.449 136.592,187.022 136.818,186.767 137.073 C 186.511 137.329,186.048 137.440,185.736 137.320 C 185.425 137.201,184.862 137.358,184.485 137.669 C 184.108 137.980,183.260 138.468,182.600 138.754 C 181.940 139.040,180.890 139.527,180.268 139.837 C 179.645 140.147,178.809 140.400,178.410 140.400 C 178.012 140.400,177.583 140.667,177.458 140.993 C 177.328 141.331,176.965 141.485,176.615 141.350 C 176.277 141.221,176.000 141.314,176.000 141.557 C 176.000 141.801,175.640 142.000,175.200 142.000 C 174.760 142.000,174.400 142.171,174.400 142.380 C 174.400 142.589,173.500 143.173,172.400 143.678 C 171.300 144.182,170.400 144.731,170.400 144.898 C 170.400 145.064,170.117 145.200,169.771 145.200 C 169.426 145.200,168.873 145.470,168.543 145.799 C 168.214 146.129,167.477 146.516,166.906 146.659 C 166.334 146.803,165.330 147.433,164.674 148.060 C 164.018 148.687,163.238 149.200,162.941 149.200 C 162.643 149.200,162.400 149.358,162.400 149.551 C 162.400 149.745,161.860 150.127,161.200 150.400 C 160.540 150.673,160.000 151.025,160.000 151.181 C 160.000 151.337,159.508 151.720,158.907 152.032 C 158.306 152.345,157.289 153.095,156.648 153.700 C 156.006 154.305,155.266 154.800,155.003 154.800 C 154.739 154.800,154.198 155.160,153.800 155.600 C 153.402 156.040,152.911 156.400,152.709 156.400 C 152.507 156.400,151.451 157.300,150.362 158.400 C 149.274 159.500,148.188 160.400,147.950 160.400 C 147.711 160.400,145.366 162.515,142.738 165.100 C 140.110 167.685,137.684 170.070,137.347 170.400 C 137.009 170.730,135.065 172.753,133.027 174.895 C 130.848 177.185,128.712 179.045,127.842 179.408 L 126.364 180.026 127.234 181.248 L 128.104 182.469 128.702 181.235 C 129.031 180.556,129.557 180.000,129.872 180.000 C 130.186 180.000,131.019 179.461,131.722 178.802 C 132.425 178.143,133.317 177.603,133.705 177.602 C 134.400 177.600,136.008 176.848,136.400 176.342 C 136.727 175.919,146.000 171.230,146.000 171.487 C 146.000 171.618,146.315 171.463,146.700 171.145 C 147.085 170.826,147.940 170.327,148.600 170.036 C 149.260 169.745,150.108 169.351,150.484 169.160 C 150.860 168.969,151.445 168.919,151.784 169.049 C 152.123 169.179,152.400 169.100,152.400 168.872 C 152.400 168.645,153.435 167.957,154.700 167.344 C 155.965 166.731,157.060 166.088,157.133 165.915 C 157.207 165.742,157.524 165.600,157.839 165.600 C 158.153 165.600,158.723 165.441,159.105 165.247 C 159.792 164.897,161.151 164.327,162.900 163.654 C 163.395 163.463,164.295 163.103,164.900 162.854 C 165.505 162.604,166.495 162.199,167.100 161.953 C 167.705 161.708,168.513 161.348,168.895 161.153 C 169.277 160.959,169.864 160.800,170.200 160.800 C 170.536 160.800,171.123 160.641,171.505 160.447 C 173.815 159.272,176.994 158.346,177.738 158.632 C 178.093 158.768,178.675 158.582,179.041 158.216 C 179.405 157.852,179.981 157.660,180.320 157.791 C 180.659 157.921,181.067 157.815,181.227 157.556 C 181.616 156.928,184.359 155.920,185.559 155.965 C 186.086 155.985,186.760 155.799,187.056 155.553 C 187.353 155.307,188.045 155.192,188.595 155.297 C 189.179 155.409,189.791 155.252,190.066 154.921 C 190.324 154.609,191.001 154.403,191.568 154.462 C 192.136 154.522,192.870 154.404,193.198 154.201 C 193.872 153.785,196.940 153.206,199.511 153.010 C 200.453 152.938,201.443 152.697,201.711 152.475 C 202.698 151.660,218.930 150.878,219.804 151.603 C 220.703 152.349,220.538 153.801,219.500 154.282 C 219.005 154.511,217.766 155.099,216.747 155.588 C 214.860 156.494,213.320 156.536,213.500 155.676 C 213.555 155.414,213.417 155.200,213.192 155.200 C 212.968 155.200,212.872 155.605,212.980 156.100 C 213.197 157.104,210.247 159.600,208.842 159.600 C 208.433 159.600,207.866 159.879,207.584 160.220 C 207.301 160.561,206.318 161.182,205.400 161.600 C 204.482 162.018,203.499 162.639,203.216 162.980 C 202.934 163.321,202.532 163.600,202.323 163.600 C 202.115 163.600,201.159 164.140,200.200 164.800 C 199.241 165.460,198.297 166.000,198.103 166.000 C 197.909 166.000,197.232 166.540,196.600 167.200 C 195.968 167.860,195.242 168.400,194.987 168.400 C 194.732 168.400,194.198 168.760,193.800 169.200 C 193.402 169.640,192.856 170.000,192.587 170.000 C 192.318 170.000,191.851 170.300,191.549 170.667 C 191.247 171.033,190.280 171.856,189.400 172.495 C 188.520 173.134,187.133 174.274,186.317 175.029 C 185.502 175.783,184.557 176.400,184.217 176.400 C 183.867 176.400,183.600 176.746,183.600 177.200 C 183.600 177.640,183.357 178.000,183.061 178.000 C 182.514 178.000,173.530 186.862,173.245 187.682 C 173.160 187.927,172.215 189.012,171.145 190.093 C 170.075 191.175,169.200 192.230,169.200 192.439 C 169.200 192.647,168.525 193.579,167.700 194.509 C 166.102 196.311,165.419 197.293,164.833 198.635 C 164.633 199.095,163.902 199.948,163.208 200.532 C 162.515 201.115,162.051 201.760,162.178 201.964 C 162.304 202.169,161.987 202.667,161.472 203.072 C 160.957 203.477,160.610 204.031,160.701 204.304 C 160.792 204.577,160.583 204.909,160.236 205.042 C 159.889 205.175,159.694 205.428,159.803 205.605 C 160.045 205.997,157.998 209.200,157.505 209.200 C 157.311 209.200,157.260 209.373,157.390 209.584 C 157.520 209.795,157.396 210.340,157.114 210.796 C 156.338 212.047,157.525 212.690,158.364 211.474 C 159.213 210.243,159.882 209.600,160.312 209.600 C 160.515 209.600,161.246 209.060,161.937 208.400 C 162.628 207.740,163.392 207.200,163.636 207.200 C 163.880 207.200,164.583 206.660,165.200 206.000 C 165.817 205.340,166.530 204.800,166.786 204.800 C 167.042 204.800,168.129 203.900,169.200 202.800 C 170.271 201.700,171.354 200.800,171.605 200.800 C 171.857 200.800,172.754 200.080,173.600 199.200 C 174.446 198.320,175.343 197.600,175.595 197.600 C 175.846 197.600,176.929 196.700,178.000 195.600 C 179.071 194.500,180.140 193.600,180.374 193.600 C 180.608 193.600,181.541 192.880,182.448 192.000 C 183.355 191.120,184.269 190.400,184.480 190.400 C 184.690 190.400,185.554 189.680,186.400 188.800 C 187.246 187.920,188.172 187.200,188.460 187.200 C 188.747 187.200,189.654 186.465,190.476 185.567 C 191.297 184.668,192.133 184.035,192.334 184.159 C 192.535 184.283,193.035 183.938,193.445 183.392 C 193.854 182.847,194.357 182.400,194.561 182.400 C 194.766 182.400,195.218 182.134,195.566 181.809 C 195.915 181.484,196.687 180.764,197.282 180.209 C 197.877 179.654,198.602 179.200,198.894 179.200 C 199.185 179.200,199.683 178.840,200.000 178.400 C 200.317 177.960,200.809 177.600,201.092 177.600 C 201.375 177.600,202.134 177.097,202.778 176.481 C 203.421 175.866,204.455 175.107,205.074 174.794 C 205.693 174.481,206.952 173.724,207.872 173.112 C 208.792 172.501,209.678 172.000,209.841 172.000 C 210.004 172.000,210.443 171.723,210.817 171.384 C 211.910 170.395,220.032 166.372,220.434 166.621 C 220.635 166.745,220.800 166.665,220.800 166.442 C 220.800 166.220,221.475 165.744,222.300 165.385 C 223.125 165.026,224.113 164.568,224.495 164.366 C 224.877 164.165,225.464 164.000,225.800 164.000 C 226.136 164.000,226.723 163.841,227.105 163.647 C 228.346 163.016,229.771 162.461,231.200 162.054 C 231.970 161.834,233.330 161.445,234.222 161.189 C 235.114 160.933,236.194 160.777,236.622 160.844 C 237.050 160.910,237.819 160.733,238.332 160.451 C 238.998 160.084,240.111 160.017,242.234 160.216 C 244.061 160.387,245.396 160.340,245.702 160.092 C 246.719 159.270,250.272 159.106,252.572 159.775 C 253.800 160.132,255.249 160.303,255.824 160.158 C 257.247 159.801,258.800 160.693,258.800 161.868 C 258.800 162.441,258.563 162.800,258.183 162.800 C 257.844 162.800,257.169 163.172,256.683 163.626 C 256.148 164.126,255.445 164.385,254.900 164.281 C 254.405 164.188,254.000 164.279,254.000 164.484 C 254.000 165.074,252.918 166.000,252.229 166.000 C 251.883 166.000,251.600 166.180,251.600 166.400 C 251.600 166.620,251.328 166.800,250.996 166.800 C 250.664 166.800,249.828 167.340,249.137 168.000 C 248.446 168.660,247.638 169.200,247.341 169.200 C 247.043 169.200,246.800 169.350,246.800 169.532 C 246.800 169.715,246.313 170.120,245.717 170.432 C 245.122 170.745,244.157 171.495,243.574 172.100 C 242.991 172.705,242.304 173.200,242.048 173.200 C 241.518 173.200,237.377 177.362,237.044 178.230 C 236.924 178.543,236.627 178.800,236.384 178.800 C 235.737 178.800,234.800 179.846,234.800 180.568 C 234.800 180.912,234.440 181.418,234.000 181.693 C 233.560 181.968,233.200 182.509,233.200 182.896 C 233.200 183.283,233.020 183.600,232.800 183.600 C 232.580 183.600,232.400 183.836,232.400 184.125 C 232.400 184.413,232.040 185.036,231.600 185.508 C 231.160 185.980,230.800 186.824,230.800 187.383 C 230.800 187.942,230.620 188.400,230.400 188.400 C 230.180 188.400,230.000 189.019,230.000 189.776 C 230.000 190.533,229.820 191.264,229.600 191.400 C 229.379 191.536,229.200 193.330,229.200 195.400 C 229.200 197.470,229.379 199.264,229.600 199.400 C 229.820 199.536,230.000 200.256,230.000 201.000 C 230.000 201.744,230.180 202.464,230.400 202.600 C 230.620 202.736,230.800 203.287,230.800 203.824 C 230.800 204.361,230.958 204.800,231.151 204.800 C 231.345 204.800,231.727 205.340,232.000 206.000 C 232.273 206.660,232.655 207.200,232.849 207.200 C 233.042 207.200,233.200 207.560,233.200 208.000 C 233.200 208.440,233.380 208.800,233.600 208.800 C 233.820 208.800,234.000 209.120,234.000 209.512 C 234.000 209.903,234.360 210.483,234.800 210.800 C 235.240 211.117,235.600 211.697,235.600 212.088 C 235.600 212.480,235.876 212.800,236.213 212.800 C 236.549 212.800,236.942 213.104,237.085 213.476 C 237.460 214.455,246.295 223.200,246.907 223.200 C 247.191 223.200,247.683 223.560,248.000 224.000 C 248.317 224.440,248.785 224.800,249.040 224.800 C 249.295 224.800,250.245 225.520,251.152 226.400 C 252.059 227.280,253.031 228.000,253.312 228.000 C 253.593 228.000,254.083 228.360,254.400 228.800 C 254.717 229.240,255.297 229.600,255.688 229.600 C 256.080 229.600,256.400 229.780,256.400 230.000 C 256.400 230.220,256.636 230.400,256.925 230.400 C 257.213 230.400,257.836 230.760,258.308 231.200 C 258.780 231.640,259.404 232.000,259.695 232.000 C 259.986 232.000,260.483 232.360,260.800 232.800 C 261.117 233.240,261.697 233.600,262.088 233.600 C 262.480 233.600,262.800 233.780,262.800 234.000 C 262.800 234.220,263.083 234.400,263.429 234.400 C 264.128 234.400,265.200 235.328,265.200 235.934 C 265.200 236.149,265.560 236.231,266.000 236.116 C 266.447 235.999,266.800 236.104,266.800 236.353 C 266.800 236.599,267.216 236.800,267.725 236.800 C 268.233 236.800,268.998 237.120,269.425 237.510 C 269.851 237.901,270.960 238.468,271.890 238.771 C 272.819 239.074,273.936 239.654,274.373 240.061 C 274.809 240.467,275.444 240.800,275.783 240.800 C 276.122 240.800,276.400 240.980,276.400 241.200 C 276.400 241.420,276.760 241.600,277.200 241.600 C 277.640 241.600,278.000 241.780,278.000 242.000 C 278.000 242.220,278.439 242.400,278.976 242.400 C 279.513 242.400,280.064 242.580,280.200 242.800 C 280.336 243.020,280.797 243.200,281.224 243.200 C 281.651 243.200,282.000 243.380,282.000 243.600 C 282.000 243.820,282.360 244.000,282.800 244.000 C 283.240 244.000,283.600 244.180,283.600 244.400 C 283.600 244.620,283.922 244.800,284.315 244.800 C 284.709 244.800,285.737 245.160,286.600 245.600 C 287.463 246.040,288.401 246.400,288.685 246.400 C 288.968 246.400,289.200 246.580,289.200 246.800 C 289.200 247.020,289.740 247.200,290.400 247.200 C 291.060 247.200,291.600 247.380,291.600 247.600 C 291.600 247.820,291.960 248.000,292.400 248.000 C 292.840 248.000,293.200 248.180,293.200 248.400 C 293.200 248.620,293.740 248.800,294.400 248.800 C 295.060 248.800,295.600 248.980,295.600 249.200 C 295.600 249.420,296.140 249.600,296.800 249.600 C 297.460 249.600,298.000 249.780,298.000 250.000 C 298.000 250.220,298.349 250.400,298.776 250.400 C 299.203 250.400,299.664 250.580,299.800 250.800 C 299.936 251.020,300.566 251.200,301.200 251.200 C 301.834 251.200,302.464 251.380,302.600 251.600 C 302.736 251.820,303.557 252.000,304.424 252.000 C 305.291 252.000,306.000 252.180,306.000 252.400 C 306.000 252.620,306.540 252.800,307.200 252.800 C 307.860 252.800,308.400 252.960,308.400 253.156 C 308.400 253.352,309.075 253.627,309.900 253.768 C 313.527 254.386,314.020 254.508,314.227 254.844 C 314.348 255.040,315.326 255.200,316.400 255.200 C 317.474 255.200,318.464 255.380,318.600 255.600 C 318.736 255.820,319.366 256.000,320.000 256.000 C 320.634 256.000,321.264 256.180,321.400 256.400 C 321.536 256.620,322.861 256.800,324.344 256.800 C 325.827 256.800,327.211 256.968,327.420 257.174 C 327.629 257.380,329.690 257.651,332.000 257.776 C 334.310 257.902,337.955 258.105,340.100 258.229 C 342.736 258.380,344.000 258.315,344.000 258.027 C 344.000 257.772,344.967 257.600,346.400 257.600 C 347.720 257.600,348.800 257.438,348.800 257.240 C 348.800 257.042,349.565 256.781,350.500 256.659 C 353.863 256.220,355.200 255.906,355.200 255.556 C 355.200 255.360,355.740 255.200,356.400 255.200 C 357.060 255.200,357.600 255.020,357.600 254.800 C 357.600 254.580,357.960 254.400,358.400 254.400 C 358.840 254.400,359.200 254.220,359.200 254.000 C 359.200 253.780,359.482 253.600,359.826 253.600 C 360.170 253.600,360.906 253.060,361.461 252.400 C 362.017 251.740,362.815 251.200,363.236 251.200 C 363.733 251.200,364.000 250.921,364.000 250.400 C 364.000 249.950,364.267 249.600,364.610 249.600 C 364.945 249.600,365.376 249.190,365.566 248.689 C 365.757 248.188,366.382 247.425,366.956 246.994 C 367.530 246.563,368.004 245.848,368.009 245.405 C 368.014 244.962,368.370 244.150,368.800 243.600 C 369.230 243.050,369.586 242.296,369.591 241.924 C 369.596 241.552,369.780 241.136,370.000 241.000 C 370.220 240.864,370.400 240.223,370.400 239.576 C 370.400 238.929,370.580 238.400,370.800 238.400 C 371.020 238.400,371.200 237.875,371.200 237.233 C 371.200 236.592,371.402 235.999,371.648 235.917 C 371.895 235.835,372.086 235.014,372.073 234.092 C 372.061 233.170,372.225 232.308,372.438 232.177 C 372.655 232.043,372.801 230.003,372.770 227.531 C 372.736 224.775,372.881 222.959,373.158 222.682 C 373.401 222.439,373.600 221.387,373.600 220.344 C 373.600 219.301,373.780 218.336,374.000 218.200 C 374.220 218.064,374.400 217.153,374.400 216.176 C 374.400 215.199,374.580 214.400,374.800 214.400 C 375.020 214.400,375.200 214.040,375.200 213.600 C 375.200 213.160,375.380 212.800,375.600 212.800 C 375.820 212.800,376.000 212.440,376.000 212.000 C 376.000 211.560,376.180 211.200,376.400 211.200 C 376.620 211.200,376.800 210.840,376.800 210.400 C 376.800 209.960,376.980 209.600,377.200 209.600 C 377.420 209.600,377.600 209.364,377.600 209.075 C 377.600 208.787,377.960 208.164,378.400 207.692 C 378.840 207.220,379.200 206.652,379.200 206.431 C 379.200 205.846,387.535 197.600,388.126 197.600 C 388.399 197.600,388.883 197.240,389.200 196.800 C 389.517 196.360,389.979 196.000,390.226 196.000 C 390.474 196.000,391.002 195.640,391.400 195.200 C 391.798 194.760,392.374 194.400,392.680 194.400 C 393.704 194.400,396.000 191.499,396.000 190.205 C 396.000 189.872,396.180 189.600,396.400 189.600 C 396.620 189.600,396.800 189.240,396.800 188.800 C 396.800 188.360,396.999 188.000,397.243 188.000 C 397.486 188.000,397.590 187.751,397.473 187.446 C 397.356 187.141,397.517 186.526,397.830 186.078 C 398.143 185.631,398.300 185.004,398.177 184.684 C 398.054 184.365,398.199 183.855,398.498 183.552 C 399.084 182.958,399.299 172.802,398.735 172.391 C 398.578 172.277,398.363 171.708,398.257 171.127 C 398.152 170.546,397.865 169.694,397.619 169.235 C 397.373 168.776,397.296 168.400,397.448 168.400 C 397.600 168.400,397.439 168.085,397.090 167.700 C 396.742 167.315,396.449 166.861,396.439 166.692 C 396.413 166.243,392.306 161.200,390.847 159.825 C 390.161 159.179,389.600 158.448,389.600 158.200 C 389.600 157.952,389.060 157.232,388.400 156.600 C 387.740 155.968,387.200 155.236,387.200 154.974 C 387.200 154.712,386.921 154.266,386.580 153.984 C 386.239 153.701,385.618 152.718,385.200 151.800 C 384.782 150.882,384.161 149.899,383.820 149.616 C 383.479 149.334,383.200 148.885,383.200 148.621 C 383.200 148.356,382.746 147.713,382.191 147.192 C 381.637 146.671,380.712 145.283,380.137 144.107 C 379.562 142.932,378.756 141.790,378.346 141.571 C 377.936 141.351,377.600 141.007,377.600 140.806 C 377.600 140.605,377.060 139.640,376.400 138.662 C 375.740 137.684,375.200 136.713,375.200 136.504 C 375.200 136.295,374.840 135.798,374.400 135.400 C 373.960 135.002,373.600 134.456,373.600 134.187 C 373.600 133.918,373.321 133.466,372.980 133.184 C 372.639 132.901,372.018 131.918,371.600 131.000 C 371.182 130.082,370.561 129.099,370.220 128.816 C 369.879 128.534,369.600 128.082,369.600 127.813 C 369.600 127.544,369.240 126.998,368.800 126.600 C 368.360 126.202,368.000 125.662,368.000 125.400 C 368.000 125.138,367.640 124.598,367.200 124.200 C 366.760 123.802,366.400 123.333,366.400 123.158 C 366.400 122.983,365.860 122.040,365.200 121.062 C 364.540 120.084,364.000 119.113,364.000 118.904 C 364.000 118.695,363.640 118.198,363.200 117.800 C 362.760 117.402,362.400 116.834,362.400 116.538 C 362.400 116.242,362.220 116.000,362.000 116.000 C 361.780 116.000,361.600 115.743,361.600 115.428 C 361.600 115.114,360.880 113.773,360.000 112.448 C 359.120 111.123,358.400 109.760,358.400 109.419 C 358.400 109.079,358.220 108.800,358.000 108.800 C 357.780 108.800,357.600 108.440,357.600 108.000 C 357.600 107.560,357.420 107.200,357.200 107.200 C 356.980 107.200,356.800 106.922,356.800 106.583 C 356.800 106.244,356.440 105.580,356.000 105.108 C 355.560 104.636,355.200 104.013,355.200 103.725 C 355.200 103.436,355.020 103.200,354.800 103.200 C 354.580 103.200,354.400 102.840,354.400 102.400 C 354.400 101.960,354.220 101.600,354.000 101.600 C 353.780 101.600,353.600 101.240,353.600 100.800 C 353.600 100.360,353.420 100.000,353.200 100.000 C 352.980 100.000,352.800 99.680,352.800 99.288 C 352.800 98.897,352.440 98.317,352.000 98.000 C 351.560 97.683,351.200 97.103,351.200 96.712 C 351.200 96.320,351.020 96.000,350.800 96.000 C 350.580 96.000,350.400 95.680,350.400 95.288 C 350.400 94.897,350.040 94.317,349.600 94.000 C 349.160 93.683,348.800 93.103,348.800 92.712 C 348.800 92.320,348.620 92.000,348.400 92.000 C 348.180 92.000,348.000 91.764,348.000 91.475 C 348.000 91.187,347.640 90.564,347.200 90.092 C 346.760 89.620,346.400 89.084,346.400 88.902 C 346.400 88.719,345.867 87.947,345.216 87.185 C 344.565 86.423,344.025 85.435,344.016 84.988 C 344.007 84.542,343.640 83.917,343.200 83.600 C 342.760 83.283,342.400 82.838,342.399 82.612 C 342.399 82.385,341.859 81.570,341.200 80.800 C 340.541 80.030,340.001 79.175,340.001 78.900 C 340.000 78.625,339.850 78.400,339.668 78.400 C 339.485 78.400,339.080 77.908,338.768 77.307 C 338.455 76.706,337.705 75.689,337.100 75.048 C 336.495 74.406,336.000 73.720,336.000 73.522 C 336.000 73.325,335.550 72.714,335.000 72.164 C 334.450 71.614,334.000 71.014,334.000 70.832 C 334.000 70.650,333.370 69.813,332.600 68.972 C 331.830 68.131,331.200 67.300,331.200 67.125 C 331.200 66.949,329.760 65.352,328.000 63.576 C 326.240 61.799,324.800 60.088,324.800 59.773 C 324.800 59.458,324.513 59.200,324.163 59.200 C 323.812 59.200,323.431 58.840,323.316 58.400 C 323.201 57.960,322.838 57.600,322.511 57.600 C 322.183 57.600,321.070 56.700,320.037 55.600 C 319.004 54.500,317.920 53.600,317.627 53.600 C 317.334 53.600,316.803 53.285,316.447 52.900 C 315.674 52.064,312.556 50.400,311.762 50.400 C 311.453 50.400,311.200 50.220,311.200 50.000 C 311.200 49.780,310.696 49.600,310.080 49.600 C 309.464 49.600,308.788 49.428,308.577 49.217 C 308.366 49.006,306.575 48.781,304.597 48.717 L 301.000 48.600 300.688 43.800 C 300.516 41.160,300.282 36.210,300.167 32.800 C 300.053 29.390,299.788 26.429,299.580 26.220 C 299.371 26.011,299.200 24.897,299.200 23.744 C 299.200 22.591,299.020 21.536,298.800 21.400 C 298.580 21.264,298.400 20.184,298.400 19.000 C 298.400 17.816,298.220 16.736,298.000 16.600 C 297.780 16.464,297.600 15.294,297.600 14.000 C 297.600 12.706,297.420 11.536,297.200 11.400 C 296.980 11.264,296.800 10.454,296.800 9.600 C 296.800 8.746,296.620 7.936,296.400 7.800 C 296.180 7.664,296.000 7.034,296.000 6.400 C 296.000 4.902,295.463 4.610,294.214 5.427 C 293.660 5.791,292.904 5.972,292.535 5.830 C 292.166 5.689,291.732 5.787,291.570 6.048 C 291.408 6.310,290.678 6.507,289.947 6.486 C 289.216 6.465,288.510 6.623,288.378 6.836 C 288.246 7.049,286.983 7.412,285.569 7.643 C 284.156 7.873,282.370 8.239,281.600 8.454 C 280.830 8.670,279.750 8.895,279.200 8.954 C 278.650 9.014,277.930 9.178,277.600 9.319 C 276.839 9.646,275.026 10.036,273.100 10.288 C 272.275 10.396,271.600 10.645,271.600 10.842 C 271.600 11.039,271.161 11.200,270.624 11.200 C 270.087 11.200,269.536 11.380,269.400 11.600 C 269.264 11.820,268.711 12.000,268.171 12.000 C 267.631 12.000,266.832 12.180,266.395 12.400 C 265.958 12.620,265.242 12.980,264.805 13.200 C 264.368 13.420,263.558 13.600,263.005 13.600 C 262.452 13.600,262.000 13.780,262.000 14.000 C 262.000 14.220,261.640 14.400,261.200 14.400 C 260.760 14.400,260.400 14.580,260.400 14.800 C 260.400 15.020,259.879 15.200,259.243 15.200 C 258.606 15.200,257.990 15.450,257.872 15.756 C 257.613 16.432,255.364 17.600,254.322 17.600 C 253.906 17.600,253.180 17.960,252.708 18.400 C 252.236 18.840,251.473 19.200,251.013 19.200 C 250.553 19.200,249.917 19.560,249.600 20.000 C 249.283 20.440,248.703 20.800,248.312 20.800 C 247.920 20.800,247.600 20.971,247.600 21.181 C 247.600 21.390,246.745 22.145,245.700 22.857 C 244.655 23.570,243.740 24.299,243.667 24.477 C 243.593 24.655,243.312 24.800,243.042 24.800 C 242.771 24.800,242.032 25.340,241.400 26.000 C 240.768 26.660,239.924 27.200,239.525 27.200 C 239.067 27.200,238.800 27.494,238.800 28.000 C 238.800 28.533,238.533 28.800,238.000 28.800 C 237.476 28.800,237.200 29.067,237.200 29.573 C 237.200 29.998,236.869 30.451,236.464 30.580 C 236.059 30.708,235.495 31.249,235.210 31.782 C 234.639 32.848,234.050 32.915,220.600 33.429 C 217.520 33.547,214.829 33.813,214.620 34.022 C 214.411 34.230,212.577 34.400,210.544 34.400 C 208.511 34.400,206.736 34.580,206.600 34.800 C 206.464 35.020,205.208 35.200,203.810 35.200 C 202.186 35.200,201.209 35.374,201.107 35.680 C 200.938 36.186,198.005 35.056,197.995 34.481 C 197.992 34.327,197.272 33.427,196.395 32.483 C 195.518 31.538,194.798 30.638,194.796 30.483 C 194.794 30.327,192.949 28.274,190.696 25.921 C 188.443 23.567,185.430 20.264,184.000 18.580 C 182.570 16.896,180.770 14.829,180.000 13.986 C 179.230 13.144,177.793 11.498,176.807 10.327 C 174.557 7.659,168.333 1.196,168.028 1.212 C 167.902 1.219,167.507 1.396,167.148 1.605 M127.029 95.029 C 126.605 95.338,126.336 95.669,126.430 95.763 C 126.524 95.857,126.948 95.681,127.371 95.371 C 127.795 95.062,128.064 94.731,127.970 94.637 C 127.876 94.543,127.452 94.719,127.029 95.029 M345.802 116.397 C 345.660 116.626,345.977 116.760,346.549 116.712 C 347.095 116.667,347.455 116.488,347.348 116.315 C 347.073 115.871,346.095 115.923,345.802 116.397 M332.000 144.800 C 332.000 145.240,332.180 145.600,332.400 145.600 C 332.620 145.600,332.800 145.240,332.800 144.800 C 332.800 144.360,332.620 144.000,332.400 144.000 C 332.180 144.000,332.000 144.360,332.000 144.800 M91.707 150.445 C 91.672 150.910,91.684 151.225,91.735 151.145 C 91.785 151.065,92.067 150.685,92.362 150.300 C 92.813 149.711,92.809 149.600,92.334 149.600 C 92.024 149.600,91.742 149.980,91.707 150.445 M187.600 191.800 C 187.600 192.167,187.793 192.402,188.030 192.323 C 188.267 192.245,188.460 192.009,188.460 191.800 C 188.460 191.591,188.267 191.356,188.030 191.277 C 187.793 191.198,187.600 191.433,187.600 191.800 M80.909 214.400 C 80.909 215.390,80.987 215.795,81.082 215.300 C 81.178 214.805,81.178 213.995,81.082 213.500 C 80.987 213.005,80.909 213.410,80.909 214.400 M117.456 316.678 C 117.005 317.128,117.181 317.600,117.800 317.600 C 118.130 317.600,118.400 317.431,118.400 317.224 C 118.400 316.719,117.775 316.358,117.456 316.678 M86.110 373.200 C 86.143 373.640,86.312 374.000,86.485 374.000 C 86.658 374.000,86.800 373.640,86.800 373.200 C 86.800 372.760,86.631 372.400,86.425 372.400 C 86.219 372.400,86.077 372.760,86.110 373.200 M297.300 377.076 C 297.685 377.176,298.315 377.176,298.700 377.076 C 299.085 376.975,298.770 376.893,298.000 376.893 C 297.230 376.893,296.915 376.975,297.300 377.076 M260.900 377.876 C 261.285 377.976,261.915 377.976,262.300 377.876 C 262.685 377.775,262.370 377.693,261.600 377.693 C 260.830 377.693,260.515 377.775,260.900 377.876 M193.778 418.035 C 193.366 418.702,194.293 419.467,194.845 418.915 C 195.307 418.453,195.018 417.600,194.400 417.600 C 194.206 417.600,193.926 417.796,193.778 418.035 " stroke="none" fill="#f3e30c" fill-rule="evenodd"></path></g></svg>